<?xml version="1.0" encoding="UTF-8"?>
<svg id="Ebene_7" data-name="Ebene 7" xmlns="http://www.w3.org/2000/svg" viewBox="0 0 450 449.96">
  <path d="M151.38,207.35v51.62c0,.83-.67,1.5-1.5,1.5h-6.3c-.83,0-1.5-.67-1.5-1.5v-.76c0-1.22-1.38-1.94-2.36-1.22-4.73,3.44-10.57,5.45-16.89,5.38-14.67-.15-27-11.82-27.91-26.46-1.02-16.42,12-30.06,28.2-30.06,6.2,0,11.93,1.99,16.58,5.38.99.72,2.37.01,2.37-1.21v-2.66c0-.83.67-1.5,1.5-1.5h6.31c.83,0,1.5.67,1.5,1.5ZM142.07,234.11c0-10.47-8.49-18.96-18.96-18.96s-18.96,8.49-18.96,18.96,8.49,18.96,18.96,18.96,18.96-8.49,18.96-18.96Z"/>
  <path d="M185.85,205.85c16.2,0,29.22,13.64,28.2,30.06-.91,14.64-13.24,26.31-27.9,26.46-6.31.07-12.16-1.94-16.89-5.38-.98-.71-2.36,0-2.36,1.22v.76c0,.83-.67,1.5-1.5,1.5h-6.3c-.83,0-1.5-.67-1.5-1.5v-62.93c0-.83.67-1.5,1.5-1.5h6.3c.83,0,1.5.67,1.5,1.5v13.98c0,1.22,1.38,1.93,2.37,1.21,4.66-3.38,10.39-5.38,16.58-5.38h0ZM204.81,234.11c0-10.47-8.49-18.95-18.96-18.95s-18.95,8.49-18.95,18.95,8.49,18.96,18.95,18.96,18.96-8.49,18.96-18.96Z"/>
  <path d="M271.35,234.11c0,15.61-12.65,28.26-28.26,28.26s-28.26-12.65-28.26-28.26,12.65-28.26,28.26-28.26,28.26,12.65,28.26,28.26ZM262.04,234.11c0-10.47-8.49-18.95-18.96-18.95s-18.96,8.49-18.96,18.95,8.49,18.96,18.96,18.96,18.96-8.49,18.96-18.96Z"/>
  <path d="M330.02,207.28v51.68c0,.83-.67,1.5-1.5,1.5h-6.3c-.83,0-1.5-.67-1.5-1.5v-.76c0-1.22-1.38-1.93-2.37-1.21-4.65,3.37-10.36,5.36-16.53,5.38-15.57.03-28.31-13.33-28.31-28.9v-26.19c0-.83.67-1.5,1.5-1.5h6.3c.83,0,1.5.67,1.5,1.5v26.83c0,10.7,8.86,19.32,19.64,18.94s18.27-9.12,18.27-19.4v-26.37c0-.83.67-1.5,1.5-1.5h6.3c.83,0,1.5.67,1.5,1.5Z"/>
  <path d="M344.01,233.25c0,7.43,4.28,13.83,10.51,16.94.52.26.86.77.86,1.35v6.87c0,1.04-1.03,1.77-2.01,1.42-3.49-1.26-6.66-3.2-9.36-5.64-5.71-5.17-9.3-12.63-9.3-20.93v-37.22c0-.83.67-1.5,1.5-1.5h6.3c.83,0,1.5.67,1.5,1.5v8.25c0,.83.67,1.5,1.5,1.5h8.37c.83,0,1.5.67,1.5,1.5v6.3c0,.83-.67,1.5-1.5,1.5h-8.37c-.83,0-1.5.67-1.5,1.5v16.66Z"/>
</svg>