<?xml version="1.0" encoding="UTF-8"?>
<svg id="Ebene_5" data-name="Ebene 5" xmlns="http://www.w3.org/2000/svg" viewBox="0 0 500 449.96">
  <path d="M141.77,217.9v24.99c0,.48-.39.86-.86.86h-2.83c-.48,0-.86-.39-.86-.86h0c0-.71-.79-1.09-1.37-.69-2.55,1.78-5.72,2.72-9.12,2.43-6.8-.58-12.25-6.26-12.58-13.07-.39-7.95,5.94-14.51,13.8-14.51,2.95,0,5.69.93,7.93,2.5.56.39,1.34-.03,1.34-.72v-.93c0-.48.39-.86.86-.86h2.83c.48,0,.86.39.86.86ZM137.22,230.86c0-5.12-4.15-9.27-9.27-9.27s-9.27,4.15-9.27,9.27,4.15,9.27,9.27,9.27,9.27-4.15,9.27-9.27Z"/>
  <path d="M148.64,230.33c0,3.5,1.95,6.54,4.82,8.11.47.26.74.77.74,1.3v1.71c0,1.11-1.16,1.85-2.16,1.38-1.24-.59-2.39-1.35-3.39-2.27-2.79-2.53-4.55-6.17-4.55-10.24v-17.42c0-.84.68-1.51,1.51-1.51h1.52c.84,0,1.51.68,1.51,1.51v2.47c0,.84.68,1.51,1.51,1.51h2.53c.84,0,1.51.68,1.51,1.51v1.52c0,.84-.68,1.51-1.51,1.51h-2.53c-.84,0-1.51.68-1.51,1.51v7.37Z"/>
  <path d="M206.39,230.86v11.7c0,.65-.53,1.18-1.18,1.18h-2.18c-.65,0-1.18-.53-1.18-1.18v-11.7c0-5.32-4.49-9.6-9.88-9.25-4.93.32-8.65,4.63-8.65,9.57v11.39c0,.65-.53,1.18-1.18,1.18h-2.18c-.65,0-1.18-.53-1.18-1.18v-11.7c0-5.32-4.49-9.6-9.88-9.25-4.93.32-8.65,4.63-8.65,9.57v11.39c0,.65-.53,1.18-1.18,1.18h-2.18c-.65,0-1.18-.53-1.18-1.18v-24.34c0-.65.53-1.18,1.18-1.18h2.18c.65,0,1.18.53,1.18,1.18h0c0,.94,1.04,1.49,1.84.98,2.15-1.37,4.7-2.17,7.43-2.17,4.28,0,8.1,1.95,10.63,5,.48.58,1.34.58,1.82,0,2.53-3.05,6.36-5,10.63-5,7.63,0,13.82,6.19,13.82,13.82h0Z"/>
  <path d="M234.96,230.86c0,7.63-6.19,13.82-13.82,13.82s-13.82-6.19-13.82-13.82,6.19-13.82,13.82-13.82,13.82,6.19,13.82,13.82ZM230.41,230.86c0-5.12-4.15-9.27-9.27-9.27s-9.27,4.15-9.27,9.27,4.15,9.27,9.27,9.27,9.27-4.15,9.27-9.27Z"/>
  <path d="M259.79,236.44c-.27,4.16-3.91,7.31-8.08,7.31h-12.11c-.78,0-1.41-.63-1.41-1.41v-1.73c0-.78.63-1.41,1.41-1.41h12.28c1.56,0,2.98-1.05,3.3-2.58.44-2.11-1.16-3.98-3.2-3.98h-8.72c-4.16,0-7.8-3.14-8.07-7.29-.3-4.55,3.31-8.33,7.8-8.33h12.84c.78,0,1.41.63,1.41,1.41v1.73c0,.78-.63,1.41-1.41,1.41h-12.66c-1.77,0-3.35,1.32-3.44,3.09-.1,1.88,1.4,3.44,3.26,3.44h8.99c4.5,0,8.11,3.79,7.81,8.35Z"/>
  <path d="M275.17,217.04c7.87,0,14.2,6.57,13.8,14.52-.34,6.82-5.79,12.48-12.59,13.06-3.2.27-6.2-.55-8.67-2.13-.79-.5-1.81.06-1.81.99v5.23c0,.65-.53,1.18-1.18,1.18h-2.18c-.65,0-1.18-.53-1.18-1.18v-30.5c0-.65.53-1.18,1.18-1.18h2.18c.65,0,1.18.53,1.18,1.18h0c0,.94,1.04,1.49,1.84.98,2.15-1.37,4.7-2.17,7.43-2.17h0ZM284.44,230.86c0-5.12-4.15-9.27-9.27-9.27s-9.27,4.15-9.27,9.27,4.15,9.27,9.27,9.27,9.27-4.15,9.27-9.27Z"/>
  <path d="M318.29,231.24v10.83c0,.93-.75,1.68-1.68,1.68h-1.19c-.93,0-1.68-.75-1.68-1.68v-10.89c0-4.94-3.73-9.25-8.65-9.57-5.4-.35-9.88,3.93-9.88,9.25v11.21c0,.93-.75,1.68-1.68,1.68h-1.19c-.93,0-1.68-.75-1.68-1.68v-28.89c0-.93.75-1.68,1.68-1.68h1.19c.93,0,1.68.75,1.68,1.68v4.17c0,1.27,1.37,2.09,2.48,1.47,2.11-1.2,4.58-1.85,7.19-1.77,7.54.22,13.41,6.66,13.41,14.19Z"/>
  <path d="M342.16,232.56h-16.36c-.95,0-1.62.97-1.24,1.85,1.42,3.3,4.7,5.61,8.52,5.61,2.63,0,5-1.1,6.68-2.86.47-.49,1.22-.57,1.77-.17l1.52,1.12c.64.47.74,1.39.2,1.98-2.92,3.19-7.32,5-12.12,4.35-6.17-.84-11.1-5.92-11.79-12.11-.92-8.34,5.58-15.39,13.73-15.39,6.69,0,12.27,4.76,13.54,11.08.18.88.27,1.8.27,2.74,0,.17,0,.35-.01.52-.03.72-.62,1.29-1.34,1.29h-3.37ZM326.27,228.01h13.61c1.02,0,1.69-1.11,1.18-1.98-1.61-2.72-4.58-4.55-7.98-4.55s-6.36,1.83-7.98,4.55c-.52.87.16,1.98,1.18,1.98Z"/>
  <path d="M358.47,216.93l1.2,4.4c-3.93,1.07-6.83,4.66-6.83,8.93v12.36c0,.56-.45,1.02-1.02,1.02h-2.52c-.56,0-1.02-.45-1.02-1.02v-24.67c0-.56.45-1.02,1.02-1.02h2.52c.56,0,1.02.45,1.02,1.02h0c0,.8.9,1.3,1.56.85,1.23-.83,2.59-1.47,4.06-1.87h0Z"/>
  <path d="M381.37,232.56h-16.36c-.95,0-1.62.97-1.24,1.85,1.42,3.3,4.7,5.61,8.52,5.61,2.63,0,5-1.1,6.68-2.86.47-.49,1.22-.57,1.77-.17l1.52,1.12c.64.47.74,1.39.2,1.97-2.92,3.19-7.32,5.01-12.12,4.35-6.17-.84-11.1-5.92-11.79-12.12-.92-8.34,5.58-15.39,13.73-15.39,6.69,0,12.27,4.76,13.54,11.08.18.88.27,1.8.27,2.74,0,.17,0,.35-.01.52-.03.72-.62,1.29-1.34,1.29h-3.38ZM365.47,228.01h13.61c1.01,0,1.69-1.1,1.17-1.98-1.61-2.72-4.58-4.55-7.98-4.55s-6.37,1.83-7.98,4.55c-.52.87.16,1.98,1.17,1.98Z"/>
</svg>