<?xml version="1.0" encoding="UTF-8"?>
<svg id="Ebene_6" data-name="Ebene 6" xmlns="http://www.w3.org/2000/svg" viewBox="0 0 450 449.96">
  <path d="M149.02,212.37v30.52c0,.48-.39.86-.86.86h-2.83c-.48,0-.86-.39-.86-.86h0c0-.71-.79-1.09-1.37-.69-2.55,1.78-5.72,2.72-9.12,2.43-6.8-.58-12.25-6.25-12.58-13.07-.39-7.95,5.94-14.51,13.8-14.51,2.95,0,5.69.93,7.93,2.5.56.39,1.34-.03,1.34-.72v-6.46c0-.48.39-.86.86-.86h2.83c.48,0,.86.39.86.86ZM144.47,230.86c0-5.12-4.15-9.27-9.27-9.27s-9.27,4.15-9.27,9.27,4.15,9.27,9.27,9.27,9.27-4.15,9.27-9.27Z"/>
  <path d="M152,214.56v-1.57c0-.82.67-1.49,1.49-1.49h1.57c.82,0,1.49.67,1.49,1.49v1.57c0,.82-.67,1.49-1.49,1.49h-1.57c-.82,0-1.49-.67-1.49-1.49ZM152,242.25v-23.72c0-.82.67-1.49,1.49-1.49h1.57c.82,0,1.49.67,1.49,1.49v23.72c0,.82-.67,1.49-1.49,1.49h-1.57c-.82,0-1.49-.67-1.49-1.49Z"/>
  <path d="M182.64,236.44c-.27,4.16-3.91,7.31-8.08,7.31h-11.94c-.87,0-1.58-.71-1.58-1.58v-1.39c0-.87.71-1.58,1.58-1.58h12.11c1.56,0,2.98-1.05,3.3-2.58.44-2.11-1.16-3.98-3.2-3.98h-8.72c-4.16,0-7.8-3.14-8.07-7.29-.3-4.55,3.31-8.33,7.8-8.33h12.67c.87,0,1.58.71,1.58,1.58v1.39c0,.87-.71,1.58-1.58,1.58h-12.49c-1.77,0-3.35,1.32-3.44,3.09-.1,1.88,1.4,3.44,3.26,3.44h8.99c4.5,0,8.11,3.79,7.81,8.35Z"/>
  <path d="M196.71,240.13c2.07,0,3.98-.68,5.53-1.83.62-.46,1.48-.43,2.03.11l1.06,1.06c.64.64.6,1.71-.12,2.27-2.78,2.17-6.41,3.3-10.31,2.81-6.23-.79-11.23-5.87-11.93-12.11-.93-8.35,5.57-15.41,13.73-15.41,3.21,0,6.17,1.1,8.52,2.94.71.56.74,1.62.11,2.26l-1.07,1.07c-.55.55-1.4.58-2.02.12-1.76-1.31-4-2.01-6.4-1.79-4.32.39-7.87,3.87-8.34,8.18-.61,5.59,3.75,10.32,9.21,10.32h0Z"/>
  <path d="M233.98,230.86c0,7.63-6.19,13.82-13.82,13.82s-13.82-6.19-13.82-13.82,6.19-13.82,13.82-13.82,13.82,6.19,13.82,13.82ZM229.43,230.86c0-5.12-4.15-9.27-9.27-9.27s-9.27,4.15-9.27,9.27,4.15,9.27,9.27,9.27,9.27-4.15,9.27-9.27Z"/>
  <path d="M259.6,219.02l-9.2,23.78c-.22.57-.77.94-1.38.94h-4.93c-.61,0-1.16-.38-1.38-.94l-9.2-23.78c-.37-.97.34-2.01,1.38-2.01h1.78c.61,0,1.16.38,1.38.94l7.12,18.42c.49,1.26,2.27,1.26,2.76,0l7.12-18.42c.22-.57.77-.94,1.38-.94h1.78c1.04,0,1.75,1.04,1.38,2.01Z"/>
  <path d="M282.01,232.56h-16.18c-1.04,0-1.78,1.07-1.35,2.02,1.46,3.21,4.69,5.44,8.44,5.44,2.59,0,4.93-1.07,6.6-2.78.52-.53,1.34-.63,1.94-.18l1.32.98c.7.51.81,1.53.22,2.16-2.92,3.13-7.28,4.9-12.03,4.25-6.17-.84-11.1-5.92-11.79-12.12-.92-8.34,5.58-15.39,13.73-15.39,6.69,0,12.27,4.76,13.54,11.08.18.88.27,1.8.27,2.74,0,.13,0,.27,0,.4-.02.79-.68,1.41-1.47,1.41h-3.25ZM266.35,228.01h13.14c1.16,0,1.86-1.29,1.23-2.26-1.65-2.57-4.53-4.26-7.8-4.26s-6.15,1.7-7.8,4.26c-.63.98.07,2.26,1.23,2.26Z"/>
  <path d="M298.31,216.93l1.2,4.4c-3.93,1.07-6.83,4.66-6.83,8.93v12.36c0,.56-.45,1.02-1.02,1.02h-2.52c-.56,0-1.02-.45-1.02-1.02v-24.67c0-.56.45-1.02,1.02-1.02h2.52c.56,0,1.02.45,1.02,1.02h0c0,.8.9,1.3,1.56.85,1.23-.83,2.59-1.47,4.06-1.87h0Z"/>
  <path d="M325.85,217.04c.78,0,1.41.63,1.41,1.41v24.24s0,.05,0,.07c0,.22,0,.44-.02.66,0,.09-.01.19-.02.28-.01.15-.02.3-.04.45-.01.1-.03.2-.04.3-.02.14-.04.28-.06.42-.02.1-.04.2-.05.29-.03.14-.05.28-.08.42-.02.09-.04.18-.06.27-.03.14-.07.29-.11.43-.02.08-.05.16-.07.24-.04.15-.09.3-.14.45-.02.07-.05.14-.07.21-.05.16-.11.32-.17.48-.02.06-.04.11-.07.17-.07.17-.14.34-.22.51-.02.04-.03.08-.05.12-.09.19-.17.37-.27.55-.01.02-.02.04-.03.06-1.5,2.89-3.99,5.18-7.02,6.42-.05.02-.1.04-.15.06-.18.07-.36.14-.55.2-.08.03-.15.05-.23.08-.17.06-.34.11-.51.16-.05.02-.1.03-.16.05h0c-1.16.31-2.38.49-3.64.49-6.7,0-12.29-4.77-13.55-11.11-.17-.86.52-1.65,1.39-1.65h1.78c.65,0,1.21.45,1.36,1.08.97,4.09,4.63,7.13,9.01,7.13.87,0,1.7-.13,2.5-.35.2-.05.39-.12.58-.18.06-.02.12-.04.18-.07.19-.07.38-.15.56-.23.05-.02.09-.05.14-.07.61-.29,1.18-.64,1.7-1.05.04-.03.08-.05.11-.08.14-.11.26-.22.39-.34.08-.07.15-.14.23-.21.11-.11.22-.22.33-.33.08-.09.17-.18.25-.27.09-.11.19-.22.28-.33.09-.11.17-.23.26-.35.07-.1.15-.2.22-.3.13-.2.25-.4.37-.61.04-.07.07-.13.1-.2.11-.21.21-.42.3-.63.04-.09.07-.17.1-.26.07-.17.14-.35.2-.53.03-.1.06-.2.09-.29.05-.18.1-.36.14-.54.02-.1.04-.2.06-.3.04-.2.07-.4.09-.6.01-.09.02-.17.03-.26.03-.29.04-.59.04-.88v-1.58c-2.54,2.3-5.95,3.67-9.67,3.56-7.53-.22-13.41-6.65-13.41-14.19v-12.03c0-.78.63-1.41,1.41-1.41h1.73c.78,0,1.41.63,1.41,1.41v12.41h0c0,5.32,4.49,9.6,9.89,9.25,4.93-.32,8.65-4.63,8.65-9.57v-12.09c0-.78.63-1.41,1.41-1.41h1.74Z"/>
</svg>