<?xml version="1.0" encoding="UTF-8"?>
<svg id="Ebene_2" data-name="Ebene 2" xmlns="http://www.w3.org/2000/svg" viewBox="0 0 372.37 144.55">
  <path d="M37.48,79.82H9.58c-.98,0-1.65.97-1.34,1.89,2.02,5.99,7.69,10.31,14.37,10.31,4.54,0,8.61-2.01,11.38-5.17.48-.55,1.3-.63,1.89-.2l3.72,2.75c.66.49.77,1.44.24,2.07-4.69,5.54-12,8.79-20.02,7.83-10.3-1.23-18.54-9.57-19.68-19.87-1.5-13.64,9.13-25.18,22.47-25.18,10.95,0,20.08,7.79,22.16,18.13.29,1.45.45,2.95.45,4.48,0,.55-.02,1.1-.06,1.64-.06.74-.67,1.32-1.42,1.32h-6.26ZM10.2,72.37h24.83c1.05,0,1.73-1.1,1.28-2.05-2.44-5.11-7.65-8.63-13.69-8.63s-11.25,3.53-13.69,8.63c-.45.95.22,2.05,1.28,2.05h0Z"/>
  <path d="M62.98,92.37v5.05c0,.98-.99,1.69-1.91,1.34-2.68-1.01-5.11-2.52-7.19-4.4-4.57-4.14-7.44-10.1-7.44-16.75v-30.99c0-.78.63-1.42,1.42-1.42h4.61c.78,0,1.42.63,1.42,1.42v30.99c0,5.9,3.37,10.99,8.29,13.49.49.25.81.73.81,1.28h-.01Z"/>
  <path d="M101.93,88.49c-.94,6.33-6.61,10.89-13.01,10.89h-20.81c-.78,0-1.42-.63-1.42-1.42v-4.61c0-.78.63-1.42,1.42-1.42h20.21c1.24,0,2.47-.26,3.55-.87,5.29-2.99,2.06-10.45-2.61-10.45h-13.43c-6.48,0-12.32-4.35-13.74-10.68-1.87-8.35,4.43-15.74,12.45-15.74h21.9c.78,0,1.42.63,1.42,1.42v4.61c0,.78-.63,1.42-1.42,1.42h-21.9c-3.58,0-6.34,3.53-4.99,7.3.97,2.69,3.65,4.38,6.51,4.38h13.2c7.71,0,13.82,7.32,12.66,15.17h0Z"/>
  <path d="M139.94,79.82h-27.9c-.98,0-1.65.97-1.34,1.89,2.02,5.99,7.69,10.31,14.37,10.31,4.54,0,8.61-2.01,11.38-5.17.48-.55,1.3-.63,1.89-.2l3.73,2.75c.66.49.77,1.44.24,2.07-4.69,5.54-12,8.79-20.02,7.83-10.3-1.23-18.54-9.56-19.68-19.87-1.51-13.64,9.13-25.18,22.47-25.18,10.95,0,20.08,7.79,22.16,18.13.29,1.45.45,2.95.45,4.48,0,.55-.02,1.1-.06,1.64-.06.74-.67,1.32-1.42,1.32h-6.27ZM112.65,72.37h24.83c1.05,0,1.73-1.1,1.28-2.05-2.44-5.11-7.65-8.63-13.69-8.63s-11.25,3.53-13.69,8.63c-.45.95.22,2.05,1.28,2.05h0Z"/>
  <path d="M263.74,77.5v20.46c0,.78-.63,1.42-1.42,1.42h-4.61c-.78,0-1.42-.63-1.42-1.42v-20.5c0-8.17-6.28-15.19-14.43-15.58-8.71-.41-15.9,6.53-15.9,15.15v20.92c0,.78-.63,1.42-1.42,1.42h-4.61c-.78,0-1.42-.63-1.42-1.42v-51.44c0-.78.63-1.42,1.42-1.42h4.61c.78,0,1.42.63,1.42,1.42v10.82c0,1.15,1.29,1.81,2.23,1.16,3.92-2.74,8.76-4.27,13.96-4.05,12.16.53,21.6,10.88,21.6,23.05h-.01Z"/>
  <path d="M303.8,79.82h-27.9c-.98,0-1.65.97-1.34,1.89,2.02,5.99,7.69,10.31,14.37,10.31,4.54,0,8.61-2.01,11.38-5.17.48-.55,1.3-.63,1.89-.2l3.73,2.75c.66.49.77,1.44.24,2.07-4.69,5.54-12,8.79-20.02,7.83-10.3-1.23-18.54-9.56-19.68-19.87-1.51-13.64,9.13-25.18,22.47-25.18,10.95,0,20.08,7.79,22.16,18.13.29,1.45.45,2.95.45,4.48,0,.55-.02,1.1-.06,1.64-.06.74-.67,1.32-1.42,1.32h-6.27ZM276.51,72.37h24.83c1.05,0,1.73-1.1,1.28-2.05-2.44-5.11-7.65-8.63-13.69-8.63s-11.25,3.53-13.69,8.63c-.45.95.22,2.05,1.28,2.05h-.01Z"/>
  <path d="M364.62,79.82h-27.9c-.98,0-1.65.97-1.34,1.89,2.02,5.99,7.69,10.31,14.37,10.31,4.54,0,8.61-2.01,11.38-5.17.48-.55,1.3-.63,1.89-.2l3.73,2.75c.66.49.77,1.44.24,2.07-4.69,5.54-12,8.79-20.02,7.83-10.3-1.23-18.54-9.56-19.68-19.87-1.51-13.64,9.13-25.18,22.47-25.18,10.95,0,20.08,7.79,22.16,18.13.29,1.45.45,2.95.45,4.48,0,.55-.02,1.1-.06,1.64-.06.74-.67,1.32-1.42,1.32h-6.27ZM337.33,72.37h24.83c1.05,0,1.73-1.1,1.28-2.05-2.44-5.11-7.65-8.63-13.69-8.63s-11.25,3.53-13.69,8.63c-.45.95.22,2.05,1.28,2.05h-.01Z"/>
  <path d="M328.63,54.53c2-.94,2.46,5.52,2.46,5.52.19.7-.18,1.44-.86,1.69-5.8,2.13-9.95,7.69-9.95,14.23v21.99c0,.78-.63,1.42-1.42,1.42h-4.61c-.78,0-1.42-.63-1.42-1.42v-42.39c0-.78.63-1.42,1.42-1.42h4.61c.78,0,1.42.63,1.42,1.42v.71c0,1.15,1.29,1.81,2.22,1.16"/>
  <path d="M215.99,56.29l-13.85,42.17c-.21.55-.74.92-1.33.92h-9.42c-.59,0-1.12-.37-1.33-.92l-8.37-27.91c-.46-1.23-2.2-1.23-2.66,0l-8.37,27.91c-.21.56-.74.92-1.33.92h-9.42c-.59,0-1.12-.37-1.33-.92l-13.85-42.17c-.35-.93.34-1.92,1.33-1.92h5.08c.59,0,1.11.36,1.32.91l10.84,33.2c.47,1.21,2.18,1.21,2.64,0l10.37-31.98.47-1.22c.21-.55.74-.91,1.32-.91h4.52c.59,0,1.11.36,1.32.91l.47,1.22,10.37,31.98c.47,1.21,2.18,1.21,2.64,0l10.84-33.2c.21-.55.74-.91,1.32-.91h5.08c.99,0,1.68.99,1.33,1.92h0Z"/>
</svg>