<?xml version="1.0" encoding="UTF-8"?>
<svg id="Ebene_4" data-name="Ebene 4" xmlns="http://www.w3.org/2000/svg" viewBox="0 0 500 449.96">
  <path d="M80.82,236.44c-.27,4.16-3.91,7.31-8.08,7.31h-12.02c-.83,0-1.5-.67-1.5-1.5v-1.55c0-.83.67-1.5,1.5-1.5h12.19c1.56,0,2.98-1.05,3.3-2.58.44-2.11-1.16-3.98-3.2-3.98h-8.72c-4.16,0-7.8-3.14-8.07-7.29-.3-4.55,3.31-8.33,7.8-8.33h12.75c.83,0,1.5.67,1.5,1.5v1.55c0,.83-.67,1.5-1.5,1.5h-12.57c-1.77,0-3.35,1.32-3.44,3.09-.1,1.88,1.4,3.44,3.26,3.44h8.99c4.5,0,8.11,3.79,7.81,8.35Z"/>
  <path d="M96.2,217.04c7.87,0,14.2,6.57,13.8,14.52-.34,6.82-5.79,12.48-12.59,13.06-3.2.27-6.2-.55-8.67-2.13-.79-.5-1.81.06-1.81.99v5.23c0,.65-.53,1.18-1.18,1.18h-2.18c-.65,0-1.18-.53-1.18-1.18v-30.5c0-.65.53-1.18,1.18-1.18h2.18c.65,0,1.18.53,1.18,1.18h0c0,.94,1.04,1.49,1.84.98,2.15-1.37,4.7-2.17,7.43-2.17h0ZM105.47,230.86c0-5.12-4.15-9.27-9.27-9.27s-9.27,4.15-9.27,9.27,4.15,9.27,9.27,9.27,9.27-4.15,9.27-9.27Z"/>
  <path d="M138.05,217.9v24.99c0,.48-.39.86-.86.86h-2.83c-.48,0-.86-.39-.86-.86h0c0-.71-.79-1.09-1.37-.69-2.55,1.78-5.72,2.72-9.12,2.43-6.8-.58-12.25-6.26-12.58-13.07-.39-7.95,5.94-14.51,13.8-14.51,2.95,0,5.69.93,7.93,2.5.56.39,1.34-.03,1.34-.72v-.93c0-.48.39-.86.86-.86h2.83c.48,0,.86.39.86.86ZM133.5,230.86c0-5.12-4.15-9.27-9.27-9.27s-9.27,4.15-9.27,9.27,4.15,9.27,9.27,9.27,9.27-4.15,9.27-9.27Z"/>
  <path d="M144.93,230.33c0,3.51,1.95,6.55,4.82,8.12.47.25.74.76.74,1.29v1.74c0,1.1-1.15,1.83-2.15,1.37-1.25-.59-2.4-1.36-3.41-2.28-2.79-2.53-4.55-6.17-4.55-10.24v-17.43c0-.83.67-1.5,1.5-1.5h1.55c.83,0,1.5.67,1.5,1.5v2.5c0,.83.67,1.5,1.5,1.5h2.55c.83,0,1.5.67,1.5,1.5v1.54c0,.83-.67,1.5-1.5,1.5h-2.55c-.83,0-1.5.67-1.5,1.5v7.38Z"/>
  <path d="M151.95,214.56v-1.55c0-.83.67-1.5,1.5-1.5h1.55c.83,0,1.5.67,1.5,1.5v1.55c0,.83-.67,1.5-1.5,1.5h-1.55c-.83,0-1.5-.67-1.5-1.5ZM151.95,242.25v-23.71c0-.83.67-1.5,1.5-1.5h1.55c.83,0,1.5.67,1.5,1.5v23.71c0,.83-.67,1.5-1.5,1.5h-1.55c-.83,0-1.5-.67-1.5-1.5Z"/>
  <path d="M185.79,217.9v24.99c0,.48-.39.86-.86.86h-2.83c-.48,0-.86-.39-.86-.86h0c0-.71-.79-1.09-1.37-.69-2.55,1.78-5.72,2.72-9.12,2.43-6.8-.58-12.25-6.26-12.58-13.07-.39-7.95,5.94-14.51,13.8-14.51,2.95,0,5.69.93,7.93,2.5.56.39,1.34-.03,1.34-.72v-.93c0-.48.39-.86.86-.86h2.83c.48,0,.86.39.86.86ZM181.24,230.86c0-5.12-4.15-9.27-9.27-9.27s-9.27,4.15-9.27,9.27,4.15,9.27,9.27,9.27,9.27-4.15,9.27-9.27Z"/>
  <path d="M188.77,242.24v-29.23c0-.83.67-1.5,1.5-1.5h1.54c.83,0,1.5.67,1.5,1.5v29.23c0,.83-.67,1.5-1.5,1.5h-1.54c-.83,0-1.5-.67-1.5-1.5Z"/>
  <path d="M262.51,230.86v11.7c0,.65-.53,1.18-1.18,1.18h-2.18c-.65,0-1.18-.53-1.18-1.18v-11.7c0-5.32-4.49-9.6-9.88-9.25-4.93.32-8.65,4.63-8.65,9.57v11.39c0,.65-.53,1.18-1.18,1.18h-2.18c-.65,0-1.18-.53-1.18-1.18v-11.7c0-5.32-4.49-9.6-9.88-9.25-4.93.32-8.65,4.63-8.65,9.57v11.39c0,.65-.53,1.18-1.18,1.18h-2.18c-.65,0-1.18-.53-1.18-1.18v-24.34c0-.65.53-1.18,1.18-1.18h2.18c.65,0,1.18.53,1.18,1.18h0c0,.94,1.04,1.49,1.84.98,2.15-1.37,4.7-2.17,7.43-2.17,4.28,0,8.1,1.95,10.63,5,.48.58,1.34.58,1.82,0,2.53-3.05,6.36-5,10.63-5,7.63,0,13.82,6.19,13.82,13.82h0Z"/>
  <path d="M286.35,232.56h-16.1c-1.12,0-1.83,1.17-1.35,2.18,1.49,3.12,4.68,5.28,8.36,5.28,2.58,0,4.9-1.06,6.58-2.75.54-.54,1.38-.64,1.99-.19l1.25.93c.72.53.84,1.57.23,2.22-2.92,3.11-7.27,4.86-12,4.21-6.17-.84-11.1-5.92-11.79-12.12-.92-8.34,5.58-15.39,13.73-15.39,6.69,0,12.27,4.76,13.54,11.08.18.88.27,1.8.27,2.74,0,.12,0,.24,0,.36-.02.81-.7,1.45-1.51,1.45h-3.21ZM270.77,228.01h12.99c1.19,0,1.92-1.33,1.27-2.33-1.66-2.53-4.51-4.2-7.76-4.2s-6.1,1.67-7.76,4.2c-.65,1,.07,2.33,1.27,2.33Z"/>
  <path d="M343.2,230.86v11.7c0,.65-.53,1.18-1.18,1.18h-2.18c-.65,0-1.18-.53-1.18-1.18v-11.7c0-5.32-4.49-9.6-9.88-9.25-4.93.32-8.65,4.63-8.65,9.57v11.39c0,.65-.53,1.18-1.18,1.18h-2.18c-.65,0-1.18-.53-1.18-1.18v-11.7c0-5.32-4.49-9.6-9.88-9.25-4.93.32-8.65,4.63-8.65,9.57v11.39c0,.65-.53,1.18-1.18,1.18h-2.18c-.65,0-1.18-.53-1.18-1.18v-24.34c0-.65.53-1.18,1.18-1.18h2.18c.65,0,1.18.53,1.18,1.18h0c0,.94,1.04,1.49,1.84.98,2.15-1.37,4.7-2.17,7.43-2.17,4.28,0,8.1,1.95,10.63,5,.48.58,1.34.58,1.82,0,2.53-3.05,6.36-5,10.63-5,7.63,0,13.82,6.19,13.82,13.82h0Z"/>
  <path d="M371.77,230.86c0,7.63-6.19,13.82-13.82,13.82s-13.82-6.19-13.82-13.82,6.19-13.82,13.82-13.82,13.82,6.19,13.82,13.82ZM367.22,230.86c0-5.12-4.15-9.27-9.27-9.27s-9.27,4.15-9.27,9.27,4.15,9.27,9.27,9.27,9.27-4.15,9.27-9.27Z"/>
  <path d="M384.34,221.47c-3.69,1.22-6.35,4.69-6.35,8.79v12.37c0,.56-.45,1.01-1.01,1.01h-2.53c-.56,0-1.01-.45-1.01-1.01v-24.68c0-.56.45-1.01,1.01-1.01h2.53c.56,0,1.01.45,1.01,1.01h0c0,.81.91,1.29,1.57.83,1.09-.75,2.28-1.34,3.59-1.73"/>
  <path d="M385.32,214.61v-1.65c0-.8.65-1.45,1.45-1.45h1.65c.8,0,1.45.65,1.45,1.45v1.65c0,.8-.65,1.45-1.45,1.45h-1.65c-.8,0-1.45-.65-1.45-1.45ZM385.32,242.3v-23.81c0-.8.65-1.45,1.45-1.45h1.65c.8,0,1.45.65,1.45,1.45v23.81c0,.8-.65,1.45-1.45,1.45h-1.65c-.8,0-1.45-.65-1.45-1.45Z"/>
  <path d="M414.43,232.56h-15.73c-1.29,0-2.16,1.38-1.56,2.52,1.55,2.94,4.64,4.94,8.19,4.94,2.55,0,4.85-1.03,6.52-2.7.59-.59,1.54-.62,2.21-.12l.87.64c.86.64.94,1.89.18,2.65-2.92,2.94-7.14,4.57-11.74,3.95-6.17-.84-11.1-5.92-11.79-12.12-.92-8.34,5.58-15.39,13.73-15.39,6.69,0,12.27,4.76,13.54,11.08.18.88.27,1.8.27,2.74,0,.04,0,.09,0,.13,0,.94-.8,1.68-1.74,1.68h-2.99ZM399.29,228.01h12.09c1.44,0,2.25-1.65,1.38-2.8-1.69-2.26-4.39-3.73-7.43-3.73s-5.74,1.46-7.43,3.73c-.86,1.16-.06,2.8,1.38,2.8Z"/>
  <path d="M443.73,236.41c-.26,4.18-3.92,7.34-8.11,7.34h-11.99c-.83,0-1.5-.67-1.5-1.5v-1.54c0-.83.67-1.5,1.5-1.5h12.16c1.58,0,3.02-1.06,3.33-2.61.42-2.1-1.18-3.95-3.2-3.95h-8.69c-4.18,0-7.84-3.15-8.1-7.32-.28-4.54,3.32-8.31,7.8-8.31h12.75c.83,0,1.5.67,1.5,1.5v1.54c0,.83-.67,1.5-1.5,1.5h-12.54c-1.78,0-3.39,1.33-3.47,3.12-.08,1.87,1.41,3.41,3.26,3.41h8.99c4.49,0,8.09,3.77,7.82,8.32Z"/>
</svg>