<?xml version="1.0" encoding="UTF-8"?>
<svg id="Ebene_3" data-name="Ebene 3" xmlns="http://www.w3.org/2000/svg" viewBox="0 0 566.93 566.93">
  <path d="M331,292.93h-89.19c-3.13,0-5.27,3.1-4.28,6.04,6.46,19.15,24.58,32.96,45.94,32.96,14.51,0,27.52-6.43,36.38-16.53,1.53-1.76,4.16-2.01,6.04-.64l11.89,8.79c2.11,1.57,2.46,4.6.77,6.62-14.99,17.71-38.36,28.1-64,25.03-32.93-3.93-59.27-30.59-62.91-63.52-4.8-43.61,29.19-80.5,71.83-80.5,35.01,0,64.19,24.9,70.84,57.96.93,4.64,1.44,9.43,1.44,14.32,0,1.76-.06,3.52-.19,5.24-.19,2.37-2.14,4.22-4.54,4.22h-20.01ZM243.79,269.12h79.38c3.36,0,5.53-3.52,4.09-6.55-7.8-16.34-24.46-27.59-43.77-27.59s-35.96,11.28-43.77,27.59c-1.44,3.04.7,6.55,4.09,6.55h-.03Z"/>
</svg>